<svg width="16" height="14" viewBox="0 0 16 14" fill="none" xmlns="http://www.w3.org/2000/svg">
<path d="M1.70575 4.4885L1.27834 4.22905H1.27834L1.70575 4.4885ZM14.2942 4.4885L14.7217 4.22905V4.22905L14.2942 4.4885ZM14.2942 9.5115L13.8668 9.25205L14.2942 9.5115ZM1.70575 9.5115L2.13317 9.25204L1.70575 9.5115ZM2.13317 4.74796C4.76198 0.417348 11.238 0.417348 13.8668 4.74796L14.7217 4.22905C11.7035 -0.743016 4.29654 -0.743016 1.27834 4.22905L2.13317 4.74796ZM13.8668 4.74796C14.7111 6.1387 14.7111 7.8613 13.8668 9.25205L14.7217 9.77095C15.7594 8.06134 15.7594 5.93866 14.7217 4.22905L13.8668 4.74796ZM13.8668 9.25205C11.238 13.5827 4.76198 13.5827 2.13317 9.25204L1.27834 9.77095C4.29654 14.743 11.7035 14.743 14.7217 9.77095L13.8668 9.25205ZM2.13317 9.25204C1.28894 7.8613 1.28894 6.1387 2.13317 4.74796L1.27834 4.22905C0.240554 5.93866 0.240553 8.06134 1.27834 9.77095L2.13317 9.25204ZM10.2663 7.04553C10.2663 8.25608 9.26115 9.25495 7.99956 9.25495V10.255C9.79348 10.255 11.2663 8.82811 11.2663 7.04553H10.2663ZM7.99956 9.25495C6.73819 9.25495 5.73369 8.25629 5.73369 7.04553H4.73369C4.73369 8.82791 6.20544 10.255 7.99956 10.255V9.25495ZM5.73369 7.04553C5.73369 5.83381 6.73829 4.83524 7.99956 4.83524V3.83524C6.20534 3.83524 4.73369 5.26239 4.73369 7.04553H5.73369ZM7.99956 4.83524C9.26104 4.83524 10.2663 5.83401 10.2663 7.04553H11.2663C11.2663 5.26218 9.79358 3.83524 7.99956 3.83524V4.83524Z" fill="white"/>
</svg>
