<svg width="14" height="12" viewBox="0 0 14 12" fill="none" xmlns="http://www.w3.org/2000/svg">
<path fill-rule="evenodd" clip-rule="evenodd" d="M7.38801 0.324832C7.69287 -0.0695537 8.22348 -0.110543 8.57317 0.233281L13.712 5.2859C13.895 5.46582 14 5.72621 14 6C14 6.27379 13.895 6.53418 13.712 6.7141L8.57317 11.7667C8.22348 12.1105 7.69287 12.0696 7.38801 11.6752C7.08315 11.2808 7.11949 10.6823 7.46918 10.3385L10.9182 6.94737H0.84C0.376081 6.94737 0 6.52322 0 6C0 5.47678 0.376081 5.05263 0.84 5.05263H10.9182L7.46918 1.66148C7.11949 1.31766 7.08315 0.719218 7.38801 0.324832Z" fill="white"/>
</svg>
