<svg width="16" height="14" viewBox="0 0 16 14" fill="none" xmlns="http://www.w3.org/2000/svg">
<path d="M1.61338 4.81295C2.07389 3.04703 3.48092 1.69601 5.24777 1.32322L5.58539 1.25199C7.17779 0.916005 8.82156 0.916004 10.414 1.25199L10.7516 1.32322C12.5184 1.69601 13.9255 3.04703 14.386 4.81295C14.7598 6.24645 14.7598 7.75355 14.386 9.18705C13.9255 10.953 12.5184 12.304 10.7516 12.6768L10.414 12.748C8.82156 13.084 7.17779 13.084 5.5854 12.748L5.24777 12.6768C3.48092 12.304 2.0739 10.953 1.61338 9.18705C1.23955 7.75356 1.23955 6.24645 1.61338 4.81295Z" stroke="white"/>
<path d="M4 7H5.33333L6.66667 9L9.33333 5L10.6667 7H12" stroke="white" stroke-linecap="round" stroke-linejoin="round"/>
</svg>
