<svg width="16" height="18" viewBox="0 0 16 18" fill="none" xmlns="http://www.w3.org/2000/svg">
<path fill-rule="evenodd" clip-rule="evenodd" d="M8.70455 0.695337C8.70455 0.311313 8.38911 0 8 0C7.61089 0 7.29545 0.311313 7.29545 0.695337V0.968783C6.87505 1.01728 6.45883 1.1062 6.05367 1.2352C3.94323 1.90718 2.29399 3.59279 1.70994 5.71011L1.66783 5.86277C1.31888 7.12783 1.24259 8.45038 1.44311 9.74515C0.72265 10.2443 0.25 11.0715 0.25 12.0085C0.25 13.3231 1.18832 14.4558 2.49379 14.717L2.83911 14.7861C3.41503 14.9014 3.99392 14.9971 4.57478 15.0734C4.58018 15.0968 4.5858 15.1202 4.59164 15.1436L4.66864 15.4512C4.97314 16.6676 5.94054 17.6143 7.1756 17.9045C7.71762 18.0318 8.28238 18.0318 8.8244 17.9045C10.0595 17.6143 11.0269 16.6676 11.3314 15.4512L11.4084 15.1436C11.4142 15.1202 11.4198 15.0968 11.4252 15.0734C12.0061 14.9971 12.585 14.9014 13.1609 14.7861L13.5062 14.717C14.8117 14.4558 15.75 13.3231 15.75 12.0085C15.75 11.0717 15.2775 10.2447 14.5574 9.74548C14.7606 8.46234 14.6925 7.15103 14.3568 5.89421L14.2982 5.67469C13.7401 3.58522 12.1478 1.91682 10.0679 1.24206C9.62359 1.09794 9.16614 1.00318 8.70455 0.957378V0.695337ZM7.50196 16.5516C6.81724 16.3907 6.27327 15.8846 6.06716 15.2262C7.35392 15.321 8.64607 15.321 9.93283 15.2262C9.72673 15.8846 9.18276 16.3907 8.49804 16.5516C8.17059 16.6286 7.82941 16.6286 7.50196 16.5516Z" fill="white"/>
</svg>
